 <svg width="16" height="15" viewBox="0 0 16 15" fill="none" xmlns="http://www.w3.org/2000/svg">
        <g clip-path="url(#clip0_59_105)">
          <path
            d="M15.3666 7.57916C15.3666 3.5843 12.1281 0.345825 8.13324 0.345825C4.13837 0.345825 0.899902 3.5843 0.899902 7.57916C0.899902 11.1895 3.54501 14.182 7.00303 14.7246V9.67004H5.16644V7.57916H7.00303V5.98557C7.00303 4.17271 8.08294 3.17135 9.73516 3.17135C10.5263 3.17135 11.3543 3.31262 11.3543 3.31262V5.0927H10.4423C9.54374 5.0927 9.26344 5.65032 9.26344 6.22291V7.57916H11.2696L10.9489 9.67004H9.26344V14.7246C12.7215 14.182 15.3666 11.1895 15.3666 7.57916Z"
            fill="white" />
        </g>
        <defs>
          <clipPath id="clip0_59_105">
            <rect width="14.4667" height="14.4667" fill="white" transform="translate(0.899902 0.345825)" />
          </clipPath>
        </defs>
      </svg>