<svg width="15" height="15" viewBox="0 0 15 15" fill="none" xmlns="http://www.w3.org/2000/svg">
        <g clip-path="url(#clip0_59_107)">
          <path
            d="M7.28875 1.64839C9.22141 1.64839 9.45028 1.65687 10.2103 1.69077C10.9167 1.72185 11.2982 1.84053 11.5525 1.93942C11.8887 2.06939 12.1317 2.22762 12.3832 2.47909C12.6375 2.73339 12.7929 2.97356 12.9228 3.3098C13.0217 3.56409 13.1404 3.94836 13.1715 4.65192C13.2054 5.41481 13.2139 5.64368 13.2139 7.57351C13.2139 9.50616 13.2054 9.73503 13.1715 10.4951C13.1404 11.2015 13.0217 11.5829 12.9228 11.8372C12.7929 12.1735 12.6346 12.4165 12.3832 12.6679C12.1289 12.9222 11.8887 13.0776 11.5525 13.2076C11.2982 13.3065 10.9139 13.4252 10.2103 13.4562C9.44745 13.4901 9.21858 13.4986 7.28875 13.4986C5.3561 13.4986 5.12723 13.4901 4.36717 13.4562C3.66078 13.4252 3.27934 13.3065 3.02504 13.2076C2.68881 13.0776 2.44581 12.9194 2.19434 12.6679C1.94004 12.4136 1.78464 12.1735 1.65466 11.8372C1.55577 11.5829 1.4371 11.1987 1.40602 10.4951C1.37211 9.73221 1.36364 9.50334 1.36364 7.57351C1.36364 5.64085 1.37211 5.41198 1.40602 4.65192C1.4371 3.94554 1.55577 3.56409 1.65466 3.3098C1.78464 2.97356 1.94287 2.73056 2.19434 2.47909C2.44864 2.2248 2.68881 2.06939 3.02504 1.93942C3.27934 1.84053 3.66361 1.72185 4.36717 1.69077C5.12723 1.65687 5.3561 1.64839 7.28875 1.64839ZM7.28875 0.345825C5.32502 0.345825 5.0792 0.354302 4.30783 0.388208C3.53929 0.422114 3.01091 0.546437 2.55318 0.724445C2.07567 0.910929 1.67162 1.15675 1.27039 1.5608C0.866344 1.96202 0.620524 2.36607 0.43404 2.84076C0.256032 3.30132 0.131709 3.82687 0.0978027 4.59541C0.0638965 5.3696 0.0554199 5.61542 0.0554199 7.57916C0.0554199 9.5429 0.0638965 9.78872 0.0978027 10.5601C0.131709 11.3286 0.256032 11.857 0.43404 12.3147C0.620524 12.7922 0.866344 13.1963 1.27039 13.5975C1.67162 13.9987 2.07567 14.2474 2.55036 14.431C3.01091 14.6091 3.53646 14.7334 4.305 14.7673C5.07637 14.8012 5.32219 14.8097 7.28593 14.8097C9.24966 14.8097 9.49549 14.8012 10.2669 14.7673C11.0354 14.7334 11.5638 14.6091 12.0215 14.431C12.4962 14.2474 12.9002 13.9987 13.3015 13.5975C13.7027 13.1963 13.9513 12.7922 14.135 12.3176C14.313 11.857 14.4373 11.3315 14.4712 10.5629C14.5051 9.79154 14.5136 9.54572 14.5136 7.58198C14.5136 5.61825 14.5051 5.37243 14.4712 4.60106C14.4373 3.83252 14.313 3.30415 14.135 2.84641C13.957 2.36607 13.7112 1.96202 13.3071 1.5608C12.9059 1.15958 12.5018 0.910929 12.0272 0.727271C11.5666 0.549263 11.041 0.42494 10.2725 0.391034C9.49831 0.354302 9.25249 0.345825 7.28875 0.345825Z"
            fill="white" />
          <path
            d="M7.2888 3.86365C5.23747 3.86365 3.57324 5.52788 3.57324 7.57921C3.57324 9.63054 5.23747 11.2948 7.2888 11.2948C9.34013 11.2948 11.0044 9.63054 11.0044 7.57921C11.0044 5.52788 9.34013 3.86365 7.2888 3.86365ZM7.2888 9.98938C5.95798 9.98938 4.87863 8.91003 4.87863 7.57921C4.87863 6.24839 5.95798 5.16904 7.2888 5.16904C8.61962 5.16904 9.69897 6.24839 9.69897 7.57921C9.69897 8.91003 8.61962 9.98938 7.2888 9.98938Z"
            fill="white" />
          <path
            d="M12.0187 3.71668C12.0187 4.19702 11.6288 4.58412 11.1512 4.58412C10.6709 4.58412 10.2838 4.19419 10.2838 3.71668C10.2838 3.23634 10.6737 2.84924 11.1512 2.84924C11.6288 2.84924 12.0187 3.23917 12.0187 3.71668Z"
            fill="white" />
        </g>
        <defs>
          <clipPath id="clip0_59_107">
            <rect width="14.4667" height="14.4667" fill="white" transform="translate(0.0554199 0.345825)" />
          </clipPath>
        </defs>
      </svg>