 <svg width="16" height="15" viewBox="0 0 16 15" fill="none" xmlns="http://www.w3.org/2000/svg">
        <g clip-path="url(#clip0_59_108)">
          <path
            d="M14.029 0.345825H1.70123C1.11069 0.345825 0.633179 0.812036 0.633179 1.38844V13.767C0.633179 14.3435 1.11069 14.8125 1.70123 14.8125H14.029C14.6195 14.8125 15.0998 14.3435 15.0998 13.7699V1.38844C15.0998 0.812036 14.6195 0.345825 14.029 0.345825ZM4.92514 12.6736H2.77775V5.768H4.92514V12.6736ZM3.85145 4.8271C3.16202 4.8271 2.60539 4.27047 2.60539 3.58387C2.60539 2.89727 3.16202 2.34064 3.85145 2.34064C4.53805 2.34064 5.09468 2.89727 5.09468 3.58387C5.09468 4.26765 4.53805 4.8271 3.85145 4.8271ZM12.9609 12.6736H10.8164V9.31685C10.8164 8.51723 10.8022 7.48592 9.70027 7.48592C8.58419 7.48592 8.41466 8.359 8.41466 9.26034V12.6736H6.27292V5.768H8.3299V6.71172H8.35815C8.64353 6.16922 9.34426 5.59564 10.3869 5.59564C12.5597 5.59564 12.9609 7.02536 12.9609 8.88455V12.6736V12.6736Z"
            fill="white" />
        </g>
        <defs>
          <clipPath id="clip0_59_108">
            <rect width="14.4667" height="14.4667" fill="white" transform="translate(0.633179 0.345825)" />
          </clipPath>
        </defs>
      </svg>