 <svg width="15" height="15" viewBox="0 0 15 15" fill="none" xmlns="http://www.w3.org/2000/svg">
        <g clip-path="url(#clip0_59_106)">
          <path
            d="M5.02885 13.4563C10.4866 13.4563 13.4726 8.93345 13.4726 5.01247C13.4726 4.88532 13.4698 4.75535 13.4642 4.6282C14.045 4.20813 14.5463 3.6878 14.9444 3.09168C14.4035 3.33237 13.8291 3.48957 13.2409 3.5579C13.8602 3.18669 14.3239 2.60354 14.5461 1.91655C13.9635 2.26182 13.3263 2.50537 12.662 2.63678C12.2144 2.16115 11.6225 1.84624 10.978 1.74071C10.3334 1.63518 9.67207 1.74493 9.09614 2.05298C8.52022 2.36102 8.06181 2.85022 7.7918 3.44492C7.52178 4.03962 7.45519 4.70672 7.60233 5.34306C6.42267 5.28386 5.26862 4.97742 4.21499 4.44359C3.16137 3.90977 2.23168 3.16048 1.48621 2.24431C1.10732 2.89756 0.991384 3.67056 1.16195 4.40622C1.33253 5.14188 1.77681 5.78499 2.40451 6.20484C1.93327 6.18988 1.47235 6.06301 1.05984 5.8347V5.87143C1.05942 6.55696 1.29641 7.22149 1.73054 7.75204C2.16467 8.2826 2.76914 8.64644 3.44119 8.78172C3.00466 8.90115 2.54651 8.91856 2.10218 8.83258C2.29182 9.42214 2.66079 9.93779 3.1576 10.3076C3.6544 10.6773 4.25426 10.8828 4.87345 10.8952C3.82225 11.7209 2.52372 12.1688 1.18699 12.1667C0.949931 12.1663 0.713107 12.1518 0.477783 12.1232C1.83575 12.9944 3.41544 13.4571 5.02885 13.4563Z"
            fill="white" />
        </g>
        <defs>
          <clipPath id="clip0_59_106">
            <rect width="14.4667" height="14.4667" fill="white" transform="translate(0.477783 0.345825)" />
          </clipPath>
        </defs>
      </svg>