<svg width="47" height="15" viewBox="0 0 47 15" fill="none" xmlns="http://www.w3.org/2000/svg">
<path d="M6.77926 0.978027L8.29439 6.01417H13.1975L9.23079 9.12668L10.7459 14.1628L6.77926 11.0503L2.81259 14.1628L4.32772 9.12668L0.361057 6.01417H5.26413L6.77926 0.978027Z" fill="#FFE70C"/>
<path d="M24.5952 0.978027L26.1103 6.01417H31.0134L27.0467 9.12668L28.5618 14.1628L24.5952 11.0503L20.6285 14.1628L22.1436 9.12668L18.177 6.01417H23.08L24.5952 0.978027Z" fill="#FFE70C"/>
<path d="M40.2517 0.978027L41.7668 6.01417H46.6699L42.7032 9.12668L44.2183 14.1628L40.2517 11.0503L36.285 14.1628L37.8001 9.12668L33.8335 6.01417H38.7365L40.2517 0.978027Z" fill="#C4C4C4"/>
</svg>
